<svg width="9" height="9" viewBox="0 0 9 9" fill="none" xmlns="http://www.w3.org/2000/svg">
<mask id="mask0_0_3" style="mask-type:luminance" maskUnits="userSpaceOnUse" x="0" y="0" width="9" height="9">
<path fill-rule="evenodd" clip-rule="evenodd" d="M0.000385775 0H8.99556V8.98866H0.000385775V0Z" fill="white"/>
</mask>
<g mask="url(#mask0_0_3)">
<path fill-rule="evenodd" clip-rule="evenodd" d="M8.20518 8.98866C7.80804 8.98866 7.46673 8.69054 7.42143 8.28708C7.02218 4.73073 4.26011 1.97076 0.702701 1.57572C0.269744 1.52727 -0.0431224 1.1375 0.00533507 0.70349C0.0527391 0.270533 0.439345 -0.0486538 0.877569 0.0061242C5.17343 0.483325 8.50962 3.8153 8.99103 8.1101C9.03949 8.54411 8.72768 8.93494 8.29472 8.98339C8.26522 8.98655 8.23467 8.98866 8.20518 8.98866Z" fill="#2A2A2A"/>
</g>
<path fill-rule="evenodd" clip-rule="evenodd" d="M4.47592 9.00003C4.10511 9.00003 3.77539 8.73878 3.70165 8.36165C3.39827 6.80259 2.19631 5.60063 0.639353 5.2983C0.21061 5.21508 -0.068547 4.80108 0.0146734 4.37234C0.0978938 3.9436 0.519263 3.66339 0.940632 3.74766C3.1328 4.17324 4.82565 5.86504 5.25229 8.05827C5.33551 8.48806 5.05635 8.90206 4.62866 8.98528C4.57705 8.99476 4.52648 9.00003 4.47592 9.00003Z" fill="#2A2A2A"/>
</svg>
