<svg width="22" height="22" viewBox="0 0 22 22" fill="none" xmlns="http://www.w3.org/2000/svg">
<path d="M11 18.6744C15.2385 18.6744 18.6744 15.2385 18.6744 11C18.6744 6.76154 15.2385 3.32558 11 3.32558C6.76154 3.32558 3.32558 6.76154 3.32558 11C3.32558 15.2385 6.76154 18.6744 11 18.6744Z" stroke="#2A2A2A" stroke-width="1.5" stroke-linecap="round" stroke-linejoin="round"/>
<path d="M11 14.0698C12.6954 14.0698 14.0698 12.6954 14.0698 11C14.0698 9.30461 12.6954 7.93023 11 7.93023C9.30461 7.93023 7.93023 9.30461 7.93023 11C7.93023 12.6954 9.30461 14.0698 11 14.0698Z" stroke="#2A2A2A" stroke-width="1.5" stroke-linecap="round" stroke-linejoin="round"/>
<path d="M11 2.81395V0.767442" stroke="#2A2A2A" stroke-width="1.5" stroke-linecap="round" stroke-linejoin="round"/>
<path d="M2.81395 11H0.767442" stroke="#2A2A2A" stroke-width="1.5" stroke-linecap="round" stroke-linejoin="round"/>
<path d="M11 19.186V21.2326" stroke="#2A2A2A" stroke-width="1.5" stroke-linecap="round" stroke-linejoin="round"/>
<path d="M19.186 11H21.2326" stroke="#2A2A2A" stroke-width="1.5" stroke-linecap="round" stroke-linejoin="round"/>
</svg>
